<svg xmlns="http://www.w3.org/2000/svg" width="25" height="24" viewBox="0 0 25 24" fill="none">
  <path d="M3.93086 2.28773C6.85472 3.54393 9.42509 5.49939 11.4159 7.9821L13.829 5.56935C11.9172 3.33323 7.95873 1.06448 4.04298 1.57185C3.96119 1.58107 3.88468 1.61689 3.82522 1.67381C3.76576 1.73073 3.72663 1.80559 3.71386 1.88691C3.70108 1.96822 3.71535 2.05148 3.75449 2.1239C3.79363 2.19631 3.85546 2.25387 3.93048 2.28773H3.93086ZM18.3882 10.174C18.5263 10.0328 18.6037 9.84312 18.6037 9.64561C18.6037 9.44809 18.5263 9.25843 18.3882 9.11723L15.3912 6.12023C15.2507 5.98106 15.0609 5.903 14.863 5.903C14.6652 5.903 14.4754 5.98106 14.3349 6.12023L11.7796 8.6751C11.6392 8.81585 11.5603 9.00654 11.5603 9.20535C11.5603 9.40417 11.6392 9.59486 11.7796 9.73561L12.6601 10.6161L13.8927 11.8484L14.4207 12.3771L14.7732 12.7289C14.8522 12.8055 14.9467 12.8642 15.0504 12.9012C15.154 12.9382 15.2644 12.9526 15.374 12.9434C15.4837 12.9341 15.5901 12.9015 15.6861 12.8477C15.7821 12.7939 15.8654 12.7201 15.9305 12.6314C16.2924 12.2695 17.993 10.57 18.3882 10.174ZM22.8391 17.5806C22.3593 14.9057 20.9744 12.4771 18.9166 10.702L16.5264 13.0922C17.7593 14.0772 18.8655 15.2111 19.8196 16.468C20.7841 17.7353 21.5905 19.1155 22.2211 20.578C22.2542 20.6539 22.3114 20.7167 22.3839 20.7567C22.4565 20.7966 22.5402 20.8115 22.622 20.7989C22.7043 20.7867 22.7801 20.7471 22.8372 20.6866C22.8943 20.626 22.9293 20.548 22.9366 20.4651C23.03 19.5035 22.9973 18.5337 22.8391 17.5806ZM2.48448 19.735C2.26166 19.963 2.11071 20.2515 2.05039 20.5645C1.99007 20.8776 2.02303 21.2015 2.14517 21.496C2.26732 21.7905 2.47327 22.0426 2.73745 22.2211C3.00164 22.3995 3.31243 22.4965 3.63123 22.4999C3.84376 22.5002 4.05423 22.4583 4.25039 22.3765C4.44656 22.2948 4.6245 22.1748 4.77386 22.0236L13.8927 12.9051L11.6034 10.6161L2.48448 19.735Z" fill="black"/>
</svg>