<svg xmlns="http://www.w3.org/2000/svg" width="38" height="38" viewBox="0 0 38 38" fill="none">
  <g clip-path="url(#clip0_5522_1281)">
    <mask id="path-1-outside-1_5522_1281" maskUnits="userSpaceOnUse" x="0" y="0" width="38" height="38" fill="black">
      <rect fill="white" width="38" height="38"/>
      <path d="M19 1C9.0748 1 1 9.0748 1 19C1 23.347 2.5492 27.3388 5.1244 30.4528C5.131 30.4618 5.1316 30.4732 5.1388 30.4816C6.9982 32.7238 9.3334 34.4428 11.9356 35.5534C11.9656 35.566 11.995 35.5798 12.025 35.5924C12.2356 35.6812 12.4486 35.7634 12.6622 35.8438C12.7462 35.8756 12.8302 35.908 12.9154 35.9386C13.0996 36.0046 13.285 36.067 13.4716 36.127C13.591 36.1654 13.7104 36.2032 13.831 36.2392C13.996 36.2884 14.1616 36.3358 14.3284 36.3808C14.4748 36.4204 14.6224 36.457 14.77 36.4924C14.9194 36.5284 15.0694 36.5644 15.22 36.5962C15.388 36.6322 15.5578 36.664 15.7282 36.6952C15.865 36.7204 16.0012 36.7468 16.1392 36.769C16.3282 36.7996 16.5184 36.8236 16.7092 36.8482C16.8322 36.8638 16.9546 36.8818 17.0782 36.895C17.2942 36.9178 17.512 36.934 17.7304 36.949C17.8318 36.9562 17.9326 36.967 18.0346 36.9724C18.3532 36.9904 18.6754 37 19 37C19.3246 37 19.6468 36.9904 19.9666 36.9736C20.0686 36.9682 20.1694 36.9574 20.2708 36.9502C20.4892 36.9346 20.707 36.919 20.923 36.8962C21.0466 36.883 21.169 36.865 21.292 36.8494C21.4828 36.8248 21.673 36.8008 21.862 36.7702C21.9994 36.748 22.1362 36.7216 22.273 36.6964C22.4428 36.6652 22.6126 36.6334 22.7812 36.5974C22.9318 36.565 23.0812 36.5296 23.2312 36.4936C23.3788 36.4576 23.5264 36.421 23.6728 36.382C23.9605 36.3047 24.2462 36.2201 24.5296 36.1282C24.7162 36.0682 24.9016 36.0058 25.0858 35.9398C25.1704 35.9092 25.2544 35.8768 25.339 35.845C25.553 35.7652 25.7654 35.6814 25.9762 35.5936C26.0062 35.581 26.0356 35.5672 26.0656 35.5546C28.7028 34.4295 31.0331 32.6906 32.8624 30.4828C32.8696 30.4744 32.8702 30.4624 32.8768 30.454C35.4508 27.3388 37 23.347 37 19C37 9.0748 28.9252 1 19 1ZM26.2942 34.132C26.2852 34.1362 26.2768 34.141 26.2678 34.1452C26.0536 34.2484 25.8358 34.3456 25.6162 34.4404C25.5664 34.4614 25.5172 34.483 25.4674 34.504C25.2749 34.5843 25.0809 34.6609 24.8854 34.7338C24.8039 34.7645 24.7221 34.7943 24.64 34.8232C24.4666 34.8852 24.2921 34.9444 24.1168 35.0008C24.0076 35.0356 23.8978 35.0686 23.788 35.101C23.6317 35.1481 23.4747 35.1927 23.317 35.2348C23.1838 35.2702 23.0494 35.3026 22.915 35.3344C22.774 35.368 22.6336 35.4022 22.4914 35.4322C22.336 35.4652 22.1794 35.4934 22.0234 35.5216C21.8968 35.545 21.7708 35.5696 21.643 35.59C21.4672 35.6176 21.2896 35.6398 21.1126 35.662C21.0004 35.6764 20.8888 35.6932 20.7754 35.7052C20.5732 35.7268 20.3692 35.7406 20.1658 35.755C20.0752 35.761 19.9852 35.7712 19.8934 35.776C19.5964 35.7916 19.2988 35.8 19 35.8C18.7012 35.8 18.4036 35.7916 18.1072 35.776C18.016 35.7712 17.926 35.7616 17.8348 35.755C17.6308 35.7412 17.4274 35.7268 17.2252 35.7052C17.1118 35.6932 17.0002 35.6764 16.888 35.662C16.711 35.6398 16.5334 35.6176 16.3576 35.59C16.2298 35.5696 16.1038 35.545 15.9772 35.5216C15.8206 35.4934 15.664 35.4646 15.5092 35.4322C15.367 35.4022 15.226 35.368 15.0856 35.3344C14.9512 35.302 14.8168 35.2702 14.6836 35.2348C14.5258 35.1928 14.3686 35.1472 14.2126 35.101C14.1026 35.0688 13.993 35.0354 13.8838 35.0008C13.7084 34.9445 13.534 34.8853 13.3606 34.8232C13.082 34.7243 12.8061 34.6179 12.5332 34.504C12.4834 34.4836 12.4348 34.462 12.385 34.441C12.1655 34.3472 11.9481 34.2488 11.7328 34.1458C11.7239 34.1416 11.7151 34.1372 11.7064 34.1326C9.613 33.1198 7.7638 31.6822 6.2632 29.9362C7.423 25.6654 10.7062 22.2226 14.9302 20.8528C15.0136 20.9038 15.1006 20.9494 15.1864 20.9974C15.2368 21.0256 15.2866 21.0556 15.3376 21.0826C15.5158 21.1777 15.6977 21.2656 15.883 21.346C16.0252 21.4084 16.1722 21.4612 16.3186 21.5152C16.3474 21.5254 16.3762 21.5368 16.405 21.547C17.2186 21.835 18.0892 22 19 22C19.9108 22 20.7814 21.835 21.5944 21.547C21.6232 21.5368 21.652 21.5254 21.6808 21.5152C21.8272 21.4612 21.9742 21.4084 22.1164 21.346C22.3017 21.2656 22.4836 21.1777 22.6618 21.0826C22.7128 21.055 22.7626 21.0256 22.813 20.9974C22.8988 20.9494 22.9864 20.9038 23.0704 20.8522C27.2944 22.2226 30.577 25.6654 31.7374 29.9356C30.2368 31.681 28.3876 33.1186 26.2942 34.132ZM12.4 14.2C12.4 10.561 15.361 7.6 19 7.6C22.639 7.6 25.6 10.561 25.6 14.2C25.6 16.5148 24.3994 18.5518 22.5904 19.7302C22.3548 19.8833 22.1092 20.0206 21.8554 20.1412C21.8254 20.1556 21.796 20.1706 21.766 20.1844C20.0284 20.9746 17.9716 20.9746 16.234 20.1844C16.204 20.1706 16.174 20.1556 16.1446 20.1412C15.8907 20.0207 15.6452 19.8834 15.4096 19.7302C13.6006 18.5518 12.4 16.5148 12.4 14.2ZM32.6374 28.7938C31.2772 24.7774 28.174 21.5314 24.2092 19.9894C25.795 18.5608 26.8 16.498 26.8 14.2C26.8 9.8992 23.3008 6.4 19 6.4C14.6992 6.4 11.2 9.8992 11.2 14.2C11.2 16.498 12.205 18.5608 13.7914 19.9894C9.8266 21.532 6.7234 24.7774 5.3632 28.7938C3.3754 26.0344 2.2 22.6528 2.2 19C2.2 9.7366 9.7366 2.2 19 2.2C28.2634 2.2 35.8 9.7366 35.8 19C35.8 22.6528 34.6246 26.0344 32.6374 28.7938Z"/>
    </mask>
    <path d="M19 1C9.0748 1 1 9.0748 1 19C1 23.347 2.5492 27.3388 5.1244 30.4528C5.131 30.4618 5.1316 30.4732 5.1388 30.4816C6.9982 32.7238 9.3334 34.4428 11.9356 35.5534C11.9656 35.566 11.995 35.5798 12.025 35.5924C12.2356 35.6812 12.4486 35.7634 12.6622 35.8438C12.7462 35.8756 12.8302 35.908 12.9154 35.9386C13.0996 36.0046 13.285 36.067 13.4716 36.127C13.591 36.1654 13.7104 36.2032 13.831 36.2392C13.996 36.2884 14.1616 36.3358 14.3284 36.3808C14.4748 36.4204 14.6224 36.457 14.77 36.4924C14.9194 36.5284 15.0694 36.5644 15.22 36.5962C15.388 36.6322 15.5578 36.664 15.7282 36.6952C15.865 36.7204 16.0012 36.7468 16.1392 36.769C16.3282 36.7996 16.5184 36.8236 16.7092 36.8482C16.8322 36.8638 16.9546 36.8818 17.0782 36.895C17.2942 36.9178 17.512 36.934 17.7304 36.949C17.8318 36.9562 17.9326 36.967 18.0346 36.9724C18.3532 36.9904 18.6754 37 19 37C19.3246 37 19.6468 36.9904 19.9666 36.9736C20.0686 36.9682 20.1694 36.9574 20.2708 36.9502C20.4892 36.9346 20.707 36.919 20.923 36.8962C21.0466 36.883 21.169 36.865 21.292 36.8494C21.4828 36.8248 21.673 36.8008 21.862 36.7702C21.9994 36.748 22.1362 36.7216 22.273 36.6964C22.4428 36.6652 22.6126 36.6334 22.7812 36.5974C22.9318 36.565 23.0812 36.5296 23.2312 36.4936C23.3788 36.4576 23.5264 36.421 23.6728 36.382C23.9605 36.3047 24.2462 36.2201 24.5296 36.1282C24.7162 36.0682 24.9016 36.0058 25.0858 35.9398C25.1704 35.9092 25.2544 35.8768 25.339 35.845C25.553 35.7652 25.7654 35.6814 25.9762 35.5936C26.0062 35.581 26.0356 35.5672 26.0656 35.5546C28.7028 34.4295 31.0331 32.6906 32.8624 30.4828C32.8696 30.4744 32.8702 30.4624 32.8768 30.454C35.4508 27.3388 37 23.347 37 19C37 9.0748 28.9252 1 19 1ZM26.2942 34.132C26.2852 34.1362 26.2768 34.141 26.2678 34.1452C26.0536 34.2484 25.8358 34.3456 25.6162 34.4404C25.5664 34.4614 25.5172 34.483 25.4674 34.504C25.2749 34.5843 25.0809 34.6609 24.8854 34.7338C24.8039 34.7645 24.7221 34.7943 24.64 34.8232C24.4666 34.8852 24.2921 34.9444 24.1168 35.0008C24.0076 35.0356 23.8978 35.0686 23.788 35.101C23.6317 35.1481 23.4747 35.1927 23.317 35.2348C23.1838 35.2702 23.0494 35.3026 22.915 35.3344C22.774 35.368 22.6336 35.4022 22.4914 35.4322C22.336 35.4652 22.1794 35.4934 22.0234 35.5216C21.8968 35.545 21.7708 35.5696 21.643 35.59C21.4672 35.6176 21.2896 35.6398 21.1126 35.662C21.0004 35.6764 20.8888 35.6932 20.7754 35.7052C20.5732 35.7268 20.3692 35.7406 20.1658 35.755C20.0752 35.761 19.9852 35.7712 19.8934 35.776C19.5964 35.7916 19.2988 35.8 19 35.8C18.7012 35.8 18.4036 35.7916 18.1072 35.776C18.016 35.7712 17.926 35.7616 17.8348 35.755C17.6308 35.7412 17.4274 35.7268 17.2252 35.7052C17.1118 35.6932 17.0002 35.6764 16.888 35.662C16.711 35.6398 16.5334 35.6176 16.3576 35.59C16.2298 35.5696 16.1038 35.545 15.9772 35.5216C15.8206 35.4934 15.664 35.4646 15.5092 35.4322C15.367 35.4022 15.226 35.368 15.0856 35.3344C14.9512 35.302 14.8168 35.2702 14.6836 35.2348C14.5258 35.1928 14.3686 35.1472 14.2126 35.101C14.1026 35.0688 13.993 35.0354 13.8838 35.0008C13.7084 34.9445 13.534 34.8853 13.3606 34.8232C13.082 34.7243 12.8061 34.6179 12.5332 34.504C12.4834 34.4836 12.4348 34.462 12.385 34.441C12.1655 34.3472 11.9481 34.2488 11.7328 34.1458C11.7239 34.1416 11.7151 34.1372 11.7064 34.1326C9.613 33.1198 7.7638 31.6822 6.2632 29.9362C7.423 25.6654 10.7062 22.2226 14.9302 20.8528C15.0136 20.9038 15.1006 20.9494 15.1864 20.9974C15.2368 21.0256 15.2866 21.0556 15.3376 21.0826C15.5158 21.1777 15.6977 21.2656 15.883 21.346C16.0252 21.4084 16.1722 21.4612 16.3186 21.5152C16.3474 21.5254 16.3762 21.5368 16.405 21.547C17.2186 21.835 18.0892 22 19 22C19.9108 22 20.7814 21.835 21.5944 21.547C21.6232 21.5368 21.652 21.5254 21.6808 21.5152C21.8272 21.4612 21.9742 21.4084 22.1164 21.346C22.3017 21.2656 22.4836 21.1777 22.6618 21.0826C22.7128 21.055 22.7626 21.0256 22.813 20.9974C22.8988 20.9494 22.9864 20.9038 23.0704 20.8522C27.2944 22.2226 30.577 25.6654 31.7374 29.9356C30.2368 31.681 28.3876 33.1186 26.2942 34.132ZM12.4 14.2C12.4 10.561 15.361 7.6 19 7.6C22.639 7.6 25.6 10.561 25.6 14.2C25.6 16.5148 24.3994 18.5518 22.5904 19.7302C22.3548 19.8833 22.1092 20.0206 21.8554 20.1412C21.8254 20.1556 21.796 20.1706 21.766 20.1844C20.0284 20.9746 17.9716 20.9746 16.234 20.1844C16.204 20.1706 16.174 20.1556 16.1446 20.1412C15.8907 20.0207 15.6452 19.8834 15.4096 19.7302C13.6006 18.5518 12.4 16.5148 12.4 14.2ZM32.6374 28.7938C31.2772 24.7774 28.174 21.5314 24.2092 19.9894C25.795 18.5608 26.8 16.498 26.8 14.2C26.8 9.8992 23.3008 6.4 19 6.4C14.6992 6.4 11.2 9.8992 11.2 14.2C11.2 16.498 12.205 18.5608 13.7914 19.9894C9.8266 21.532 6.7234 24.7774 5.3632 28.7938C3.3754 26.0344 2.2 22.6528 2.2 19C2.2 9.7366 9.7366 2.2 19 2.2C28.2634 2.2 35.8 9.7366 35.8 19C35.8 22.6528 34.6246 26.0344 32.6374 28.7938Z" fill="#4D4D4D"/>
    <path d="M19 1C9.0748 1 1 9.0748 1 19C1 23.347 2.5492 27.3388 5.1244 30.4528C5.131 30.4618 5.1316 30.4732 5.1388 30.4816C6.9982 32.7238 9.3334 34.4428 11.9356 35.5534C11.9656 35.566 11.995 35.5798 12.025 35.5924C12.2356 35.6812 12.4486 35.7634 12.6622 35.8438C12.7462 35.8756 12.8302 35.908 12.9154 35.9386C13.0996 36.0046 13.285 36.067 13.4716 36.127C13.591 36.1654 13.7104 36.2032 13.831 36.2392C13.996 36.2884 14.1616 36.3358 14.3284 36.3808C14.4748 36.4204 14.6224 36.457 14.77 36.4924C14.9194 36.5284 15.0694 36.5644 15.22 36.5962C15.388 36.6322 15.5578 36.664 15.7282 36.6952C15.865 36.7204 16.0012 36.7468 16.1392 36.769C16.3282 36.7996 16.5184 36.8236 16.7092 36.8482C16.8322 36.8638 16.9546 36.8818 17.0782 36.895C17.2942 36.9178 17.512 36.934 17.7304 36.949C17.8318 36.9562 17.9326 36.967 18.0346 36.9724C18.3532 36.9904 18.6754 37 19 37C19.3246 37 19.6468 36.9904 19.9666 36.9736C20.0686 36.9682 20.1694 36.9574 20.2708 36.9502C20.4892 36.9346 20.707 36.919 20.923 36.8962C21.0466 36.883 21.169 36.865 21.292 36.8494C21.4828 36.8248 21.673 36.8008 21.862 36.7702C21.9994 36.748 22.1362 36.7216 22.273 36.6964C22.4428 36.6652 22.6126 36.6334 22.7812 36.5974C22.9318 36.565 23.0812 36.5296 23.2312 36.4936C23.3788 36.4576 23.5264 36.421 23.6728 36.382C23.9605 36.3047 24.2462 36.2201 24.5296 36.1282C24.7162 36.0682 24.9016 36.0058 25.0858 35.9398C25.1704 35.9092 25.2544 35.8768 25.339 35.845C25.553 35.7652 25.7654 35.6814 25.9762 35.5936C26.0062 35.581 26.0356 35.5672 26.0656 35.5546C28.7028 34.4295 31.0331 32.6906 32.8624 30.4828C32.8696 30.4744 32.8702 30.4624 32.8768 30.454C35.4508 27.3388 37 23.347 37 19C37 9.0748 28.9252 1 19 1ZM26.2942 34.132C26.2852 34.1362 26.2768 34.141 26.2678 34.1452C26.0536 34.2484 25.8358 34.3456 25.6162 34.4404C25.5664 34.4614 25.5172 34.483 25.4674 34.504C25.2749 34.5843 25.0809 34.6609 24.8854 34.7338C24.8039 34.7645 24.7221 34.7943 24.64 34.8232C24.4666 34.8852 24.2921 34.9444 24.1168 35.0008C24.0076 35.0356 23.8978 35.0686 23.788 35.101C23.6317 35.1481 23.4747 35.1927 23.317 35.2348C23.1838 35.2702 23.0494 35.3026 22.915 35.3344C22.774 35.368 22.6336 35.4022 22.4914 35.4322C22.336 35.4652 22.1794 35.4934 22.0234 35.5216C21.8968 35.545 21.7708 35.5696 21.643 35.59C21.4672 35.6176 21.2896 35.6398 21.1126 35.662C21.0004 35.6764 20.8888 35.6932 20.7754 35.7052C20.5732 35.7268 20.3692 35.7406 20.1658 35.755C20.0752 35.761 19.9852 35.7712 19.8934 35.776C19.5964 35.7916 19.2988 35.8 19 35.8C18.7012 35.8 18.4036 35.7916 18.1072 35.776C18.016 35.7712 17.926 35.7616 17.8348 35.755C17.6308 35.7412 17.4274 35.7268 17.2252 35.7052C17.1118 35.6932 17.0002 35.6764 16.888 35.662C16.711 35.6398 16.5334 35.6176 16.3576 35.59C16.2298 35.5696 16.1038 35.545 15.9772 35.5216C15.8206 35.4934 15.664 35.4646 15.5092 35.4322C15.367 35.4022 15.226 35.368 15.0856 35.3344C14.9512 35.302 14.8168 35.2702 14.6836 35.2348C14.5258 35.1928 14.3686 35.1472 14.2126 35.101C14.1026 35.0688 13.993 35.0354 13.8838 35.0008C13.7084 34.9445 13.534 34.8853 13.3606 34.8232C13.082 34.7243 12.8061 34.6179 12.5332 34.504C12.4834 34.4836 12.4348 34.462 12.385 34.441C12.1655 34.3472 11.9481 34.2488 11.7328 34.1458C11.7239 34.1416 11.7151 34.1372 11.7064 34.1326C9.613 33.1198 7.7638 31.6822 6.2632 29.9362C7.423 25.6654 10.7062 22.2226 14.9302 20.8528C15.0136 20.9038 15.1006 20.9494 15.1864 20.9974C15.2368 21.0256 15.2866 21.0556 15.3376 21.0826C15.5158 21.1777 15.6977 21.2656 15.883 21.346C16.0252 21.4084 16.1722 21.4612 16.3186 21.5152C16.3474 21.5254 16.3762 21.5368 16.405 21.547C17.2186 21.835 18.0892 22 19 22C19.9108 22 20.7814 21.835 21.5944 21.547C21.6232 21.5368 21.652 21.5254 21.6808 21.5152C21.8272 21.4612 21.9742 21.4084 22.1164 21.346C22.3017 21.2656 22.4836 21.1777 22.6618 21.0826C22.7128 21.055 22.7626 21.0256 22.813 20.9974C22.8988 20.9494 22.9864 20.9038 23.0704 20.8522C27.2944 22.2226 30.577 25.6654 31.7374 29.9356C30.2368 31.681 28.3876 33.1186 26.2942 34.132ZM12.4 14.2C12.4 10.561 15.361 7.6 19 7.6C22.639 7.6 25.6 10.561 25.6 14.2C25.6 16.5148 24.3994 18.5518 22.5904 19.7302C22.3548 19.8833 22.1092 20.0206 21.8554 20.1412C21.8254 20.1556 21.796 20.1706 21.766 20.1844C20.0284 20.9746 17.9716 20.9746 16.234 20.1844C16.204 20.1706 16.174 20.1556 16.1446 20.1412C15.8907 20.0207 15.6452 19.8834 15.4096 19.7302C13.6006 18.5518 12.4 16.5148 12.4 14.2ZM32.6374 28.7938C31.2772 24.7774 28.174 21.5314 24.2092 19.9894C25.795 18.5608 26.8 16.498 26.8 14.2C26.8 9.8992 23.3008 6.4 19 6.4C14.6992 6.4 11.2 9.8992 11.2 14.2C11.2 16.498 12.205 18.5608 13.7914 19.9894C9.8266 21.532 6.7234 24.7774 5.3632 28.7938C3.3754 26.0344 2.2 22.6528 2.2 19C2.2 9.7366 9.7366 2.2 19 2.2C28.2634 2.2 35.8 9.7366 35.8 19C35.8 22.6528 34.6246 26.0344 32.6374 28.7938Z" stroke="#4D4D4D" stroke-width="0.8" mask="url(#path-1-outside-1_5522_1281)"/>
  </g>
  <defs>
    <clipPath id="clip0_5522_1281">
      <rect width="38" height="38" fill="white"/>
    </clipPath>
  </defs>
</svg>