<svg xmlns="http://www.w3.org/2000/svg" width="48" height="48" viewBox="0 0 48 48" fill="none">
<path d="M0 9C0 4.02944 4.02944 0 9 0H39C43.9706 0 48 4.02944 48 9V39C48 43.9706 43.9706 48 39 48H9C4.02944 48 0 43.9706 0 39V9Z" fill="#67DAB1"/>
<g clip-path="url(#clip0_5439_2994)">
<path d="M27.043 22.3895L37.0343 10.7754H34.6667L25.9912 20.8598L19.0622 10.7754H11.0703L21.5484 26.0248L11.0703 38.204H13.438L22.5996 27.5545L29.9172 38.204H37.9091L27.0424 22.3895H27.043ZM23.8 26.1591L22.7384 24.6406L14.2912 12.5578H17.9279L24.7449 22.309L25.8066 23.8275L34.6678 36.5026H31.0311L23.8 26.1597V26.1591Z" fill="black"/>
</g>
<defs>
<clipPath id="clip0_5439_2994">
<rect width="27.4286" height="27.4286" fill="white" transform="translate(10.7754 10.7754)"/>
</clipPath>
</defs>
</svg>