<svg xmlns="http://www.w3.org/2000/svg" width="48" height="48" viewBox="0 0 48 48" fill="none">
<path d="M0 9C0 4.02944 4.02944 0 9 0H39C43.9706 0 48 4.02944 48 9V39C48 43.9706 43.9706 48 39 48H9C4.02944 48 0 43.9706 0 39V9Z" fill="#67DAB1"/>
<path d="M32.801 15.9554C31.2297 15.2361 29.571 14.7258 27.8672 14.4375C27.634 14.8543 27.4231 15.2831 27.2352 15.7222C25.4203 15.4487 23.5746 15.4487 21.7597 15.7222C21.5717 15.2832 21.3607 14.8544 21.1277 14.4375C19.4228 14.7282 17.7629 15.2397 16.1901 15.9592C13.0677 20.5789 12.2213 25.0838 12.6445 29.5247C14.4731 30.8758 16.5198 31.9032 18.6956 32.5625C19.1855 31.9036 19.6191 31.2045 19.9916 30.4727C19.284 30.2085 18.6011 29.8824 17.9507 29.4984C18.1219 29.3743 18.2893 29.2464 18.4511 29.1222C20.3435 30.0122 22.409 30.4736 24.5003 30.4736C26.5915 30.4736 28.657 30.0122 30.5494 29.1222C30.7131 29.2558 30.8805 29.3837 31.0498 29.4984C30.3982 29.8831 29.714 30.2097 29.0052 30.4746C29.3772 31.206 29.8108 31.9045 30.3012 32.5625C32.4789 31.9059 34.5271 30.8789 36.356 29.5266C36.8526 24.3765 35.5077 19.913 32.801 15.9554ZM20.5277 26.7936C19.3483 26.7936 18.3739 25.7233 18.3739 24.4066C18.3739 23.0899 19.3144 22.0103 20.5239 22.0103C21.7334 22.0103 22.7002 23.0899 22.6795 24.4066C22.6588 25.7233 21.7296 26.7936 20.5277 26.7936ZM28.4729 26.7936C27.2916 26.7936 26.321 25.7233 26.321 24.4066C26.321 23.0899 27.2615 22.0103 28.4729 22.0103C29.6842 22.0103 30.6435 23.0899 30.6228 24.4066C30.6021 25.7233 29.6748 26.7936 28.4729 26.7936Z" fill="#0C0E0F"/>
</svg>