<svg xmlns="http://www.w3.org/2000/svg" width="36" height="36" viewBox="0 0 36 36" fill="none">
  <path d="M17.8774 4.51182L17.8775 4.51201L17.8836 4.50595C17.9032 4.48903 17.9282 4.4796 17.9541 4.47941C17.9792 4.47969 18.0034 4.48859 18.0226 4.50454L18.0226 4.50459L18.0305 4.51182L31.3843 16.6457C31.4114 16.6734 31.4275 16.7101 31.4294 16.7489V32.1886C31.4294 32.2175 31.4179 32.2453 31.3974 32.2657C31.3769 32.2862 31.3492 32.2977 31.3202 32.2977H23.3008C23.2719 32.2977 23.2441 32.2862 23.2237 32.2657C23.2032 32.2453 23.1917 32.2175 23.1917 32.1886V24.1692C23.1917 23.4892 22.9216 22.837 22.4407 22.3562C21.9599 21.8753 21.3077 21.6052 20.6277 21.6052H15.2815C14.9448 21.6052 14.6114 21.6715 14.3003 21.8004C13.9892 21.9292 13.7066 22.1181 13.4685 22.3562C13.2304 22.5943 13.0415 22.8769 12.9127 23.188C12.7838 23.4991 12.7175 23.8325 12.7175 24.1692V32.1886C12.7175 32.2175 12.706 32.2453 12.6855 32.2657C12.6651 32.2862 12.6373 32.2977 12.6084 32.2977H4.58898C4.56004 32.2977 4.53228 32.2862 4.51181 32.2657C4.49134 32.2453 4.47984 32.2175 4.47984 32.1886V16.7494C4.48141 16.7099 4.49754 16.6725 4.52508 16.6442L17.8774 4.51182ZM16.2257 2.69556L16.2256 2.69539L16.2208 2.70016L2.86053 14.8405L2.86035 14.8403L2.85275 14.8479L2.8416 14.8591C2.5893 15.098 2.38713 15.3848 2.24693 15.7028C2.10629 16.0217 2.03085 16.3656 2.02503 16.7141H2.025V16.7179V32.1886C2.025 32.8686 2.29513 33.5207 2.77597 34.0016C3.25681 34.4824 3.90897 34.7525 4.58898 34.7525H12.6084C13.2884 34.7525 13.9405 34.4824 14.4214 34.0016C14.9022 33.5207 15.1723 32.8686 15.1723 32.1886V24.1692C15.1723 24.1402 15.1838 24.1125 15.2043 24.092C15.2248 24.0715 15.2525 24.06 15.2815 24.06H20.6277C20.6567 24.06 20.6844 24.0715 20.7049 24.092C20.7254 24.1125 20.7369 24.1402 20.7369 24.1692V32.1886C20.7369 32.8686 21.007 33.5207 21.4878 34.0016C21.9687 34.4824 22.6208 34.7525 23.3008 34.7525H31.3202C32.0002 34.7525 32.6524 34.4824 33.1332 34.0016C33.6141 33.5207 33.8842 32.8686 33.8842 32.1886V16.7179H33.8842L33.8842 16.714C33.8783 16.3655 33.8028 16.0217 33.6622 15.7028C33.5215 15.3839 33.3186 15.0963 33.0653 14.8569L33.0653 14.8569L33.0621 14.8539L33.0474 14.8406L33.0474 14.8405L19.691 2.70257L19.6911 2.70252L19.6835 2.69556C19.211 2.26418 18.5944 2.025 17.9546 2.025C17.3148 2.025 16.6982 2.26417 16.2257 2.69556Z" fill="#515151" stroke="#515151" stroke-width="0.45"/>
</svg>