<svg width="32" height="32" viewBox="0 0 32 32" fill="none" xmlns="http://www.w3.org/2000/svg">
<g id="Frame" clip-path="url(#clip0_5304_1476)">
<g id="Group">
<g id="Group_2">
<path id="Vector" d="M17.891 2.51051L17.8911 2.51068L17.8965 2.50528C17.914 2.49024 17.9362 2.48187 17.9592 2.4817C17.9815 2.48195 18.003 2.48987 18.0201 2.50405L18.0201 2.5041L18.0271 2.51051L29.8971 13.2962C29.9213 13.3208 29.9355 13.3534 29.9372 13.3879V27.112C29.9372 27.1378 29.927 27.1625 29.9088 27.1806C29.8906 27.1988 29.8659 27.2091 29.8402 27.2091H22.7119C22.6861 27.2091 22.6615 27.1988 22.6433 27.1807C22.6251 27.1625 22.6149 27.1378 22.6149 27.112V19.9837C22.6149 19.3793 22.3747 18.7996 21.9473 18.3722C21.5199 17.9447 20.9402 17.7046 20.3358 17.7046H15.5835C15.2842 17.7046 14.9879 17.7636 14.7114 17.8781C14.4349 17.9926 14.1836 18.1605 13.972 18.3722C13.7603 18.5838 13.5925 18.835 13.4779 19.1115C13.3634 19.3881 13.3044 19.6844 13.3044 19.9837V27.112C13.3044 27.1378 13.2942 27.1625 13.276 27.1806L13.4174 27.3221L13.276 27.1807C13.2578 27.1988 13.2332 27.2091 13.2074 27.2091H6.0791C6.05337 27.2091 6.02869 27.1988 6.0105 27.1806C5.9923 27.1625 5.98208 27.1378 5.98208 27.112V13.3884C5.98348 13.3533 5.99781 13.32 6.02229 13.2948L17.891 2.51051ZM16.4229 0.896051L16.4227 0.895897L16.4185 0.900145L4.54269 11.6916L4.54254 11.6914L4.53578 11.6982L4.52585 11.7081C4.30159 11.9205 4.12189 12.1754 3.99727 12.458C3.87226 12.7415 3.8052 13.0472 3.80003 13.357L3.8 13.357V13.3603V27.112C3.8 27.7165 4.04012 28.2962 4.46753 28.7236C4.89495 29.151 5.47464 29.3911 6.0791 29.3911H13.2074C13.8119 29.3911 14.3916 29.151 14.819 28.7236C15.2464 28.2962 15.4865 27.7165 15.4865 27.112V19.9837C15.4865 19.958 15.4967 19.9333 15.5149 19.9151C15.5331 19.8969 15.5578 19.8867 15.5835 19.8867H20.3358C20.3615 19.8867 20.3862 19.8969 20.4044 19.9151C20.4225 19.9333 20.4328 19.958 20.4328 19.9837V27.112C20.4328 27.7165 20.6729 28.2962 21.1003 28.7236C21.5277 29.151 22.1074 29.3911 22.7119 29.3911H29.8402C30.4447 29.3911 31.0243 29.151 31.4518 28.7236C31.8792 28.2962 32.1193 27.7165 32.1193 27.112L32.1193 13.3603L32.1193 13.3569C32.114 13.0471 32.0469 12.7415 31.9219 12.4581C31.7969 12.1746 31.6165 11.9189 31.3913 11.7061L31.3914 11.7061L31.3885 11.7035L31.3755 11.6916L31.3754 11.6916L19.5031 0.902257L19.5032 0.902215L19.4964 0.896051C19.0765 0.5126 18.5283 0.3 17.9596 0.3C17.391 0.3 16.8428 0.5126 16.4229 0.896051Z" fill="#FFF" stroke="#FFF" stroke-width="0.4"/>
</g>
</g>
</g>
<defs>
<clipPath id="clip0_5304_1476">
<rect width="32" height="32" fill="white"/>
</clipPath>
</defs>
</svg>
