<svg xmlns="http://www.w3.org/2000/svg" width="64" height="64" viewBox="0 0 64 64" fill="none">
  <g clip-path="url(#clip0_5304_1563)">
    <path d="M32.0001 55.509C31.4662 55.509 30.9324 55.368 30.459 55.096L12.7819 44.8826C11.825 44.3286 11.2408 43.3113 11.2408 42.2033V21.7866C11.2408 20.6786 11.825 19.6613 12.7819 19.1073L30.459 8.89393C30.9324 8.62197 31.4662 8.48096 32.0001 8.48096C32.5339 8.48096 33.0677 8.62197 33.5411 8.89393L51.2182 19.1073C52.1751 19.6613 52.7593 20.6786 52.7593 21.7866V42.2033C52.7593 43.3113 52.1751 44.3286 51.2182 44.8826L33.5411 55.096C33.0677 55.368 32.5339 55.509 32.0001 55.509Z" fill="#CFE022"/>
    <path d="M62.4892 41.7199C62.7913 40.763 63.0532 39.8061 63.2648 38.8291C63.2648 38.8089 63.2647 38.7989 63.2748 38.7787C63.3655 38.3658 63.436 37.9629 63.5166 37.5499C63.5367 37.429 63.5669 37.3082 63.5871 37.1772C63.6374 36.865 63.6777 36.5426 63.7281 36.2203C63.7583 35.9887 63.7885 35.757 63.8187 35.5253C63.8489 35.2937 63.859 35.062 63.8792 34.8404C63.9094 34.508 63.9396 34.1756 63.9597 33.8432C63.9597 33.6922 63.9698 33.5411 63.9799 33.39C64 32.9871 64.0101 32.5842 64.0101 32.1712C64.0101 32.1108 64.0101 32.0504 64.0101 31.9899C64.0101 31.9396 64.0101 31.8892 64.0101 31.8388C64.0101 31.4359 64 31.023 63.9799 30.6201C63.9799 30.469 63.9698 30.3078 63.9597 30.1568C63.9396 29.8244 63.9094 29.492 63.8792 29.1596C63.859 28.9279 63.8389 28.6963 63.8087 28.4646C63.7784 28.2329 63.7482 28.0013 63.718 27.7696C63.6777 27.4473 63.6374 27.135 63.577 26.8127C63.5568 26.6918 63.5367 26.571 63.5065 26.4501C63.436 26.0371 63.3554 25.6242 63.2648 25.2112C63.2648 25.2011 63.2647 25.181 63.2547 25.1709C63.0432 24.1939 62.7813 23.2269 62.4791 22.2701C62.4791 22.26 62.4791 22.2398 62.469 22.2298C62.3381 21.8269 62.1971 21.4341 62.0561 21.0412C62.0158 20.9204 61.9755 20.8096 61.9352 20.6887C61.8244 20.3865 61.6935 20.0844 61.5726 19.7923C61.4819 19.5807 61.4014 19.3591 61.3006 19.1476C61.21 18.9361 61.1093 18.7246 61.0085 18.5131C60.8675 18.2109 60.7265 17.9087 60.5754 17.6166C60.5049 17.4756 60.4344 17.3447 60.3639 17.2037C60.1826 16.8511 59.9912 16.4885 59.7898 16.136C59.7596 16.0856 59.7394 16.0353 59.7092 15.995L46.4237 23.6601V40.3198L59.7092 47.9849C59.7394 47.9345 59.7696 47.8842 59.7898 47.8439C59.9912 47.4913 60.1826 47.1388 60.374 46.7762C60.4445 46.6352 60.515 46.5042 60.5855 46.3632C60.7366 46.0611 60.8776 45.7589 61.0186 45.4668C61.1193 45.2553 61.21 45.0437 61.3107 44.8322C61.4014 44.6207 61.492 44.3991 61.5827 44.1876C61.7035 43.8854 61.8244 43.5933 61.9453 43.2912C61.9856 43.1703 62.0258 43.0595 62.0762 42.9386C62.2172 42.5458 62.3582 42.153 62.4892 41.7501C62.4892 41.74 62.4892 41.7199 62.4992 41.7098L62.4892 41.7199Z" fill="#41C193"/>
    <path d="M17.5663 23.6701L32 15.3403V0C31.9396 0 31.8892 0 31.8288 0C31.4259 0 31.023 0.0100724 30.6201 0.0302172C30.469 0.0302172 30.3078 0.0402896 30.1568 0.050362C29.8244 0.0705068 29.492 0.100724 29.1596 0.130941C28.9279 0.151086 28.6963 0.171231 28.4646 0.201448C28.2329 0.231665 28.0013 0.261882 27.7696 0.292099C27.4473 0.332389 27.125 0.372679 26.8127 0.433113C26.6918 0.453258 26.571 0.473403 26.4501 0.493547C26.0371 0.564054 25.6242 0.644633 25.2112 0.735285C25.2011 0.735285 25.181 0.735285 25.1709 0.735285C24.1939 0.946805 23.2269 1.20869 22.2701 1.51086C22.26 1.51086 22.2398 1.51086 22.2298 1.52093C21.8269 1.65187 21.4341 1.79289 21.0412 1.9339C20.9204 1.97419 20.8096 2.01448 20.6887 2.06484C20.3865 2.17564 20.0844 2.30658 19.7923 2.42745C19.5807 2.5181 19.3591 2.60875 19.1476 2.6994C18.9361 2.79005 18.7246 2.89078 18.5131 2.9915C18.2109 3.13251 17.9087 3.27353 17.6166 3.42461C17.4756 3.49512 17.3447 3.56563 17.2036 3.63613C16.8511 3.82751 16.4885 4.01889 16.136 4.22033C16.0856 4.25055 16.0453 4.2707 15.995 4.30091C15.9446 4.33113 15.9043 4.35127 15.8539 4.38149C15.5014 4.58294 15.159 4.79446 14.8165 5.01605C14.6855 5.09663 14.5546 5.17721 14.4237 5.26786C14.1416 5.44917 13.8697 5.64054 13.5977 5.83192C13.4064 5.96286 13.2251 6.0938 13.0337 6.23481C12.8423 6.37583 12.661 6.51684 12.4696 6.65785C12.2178 6.84923 11.966 7.05068 11.7142 7.25212C11.6135 7.3327 11.5228 7.41328 11.4221 7.49386C11.0998 7.76582 10.7875 8.03777 10.4753 8.30973C10.4652 8.3198 10.4551 8.32987 10.435 8.33994C9.69971 9.01479 8.98457 9.71986 8.30972 10.4652C8.30972 10.4753 8.28958 10.4854 8.27951 10.4954C7.99748 10.8077 7.72552 11.1199 7.45357 11.4422C7.37299 11.543 7.29241 11.6336 7.21183 11.7243C7.01038 11.9761 6.80894 12.2279 6.61756 12.4797C6.47655 12.661 6.33553 12.8524 6.19452 13.0337C6.05351 13.215 5.92257 13.4064 5.79162 13.5977C5.60025 13.8697 5.40887 14.1416 5.22757 14.4237C5.14699 14.5546 5.05634 14.6856 4.97576 14.8165C4.76424 15.159 4.55272 15.5014 4.3412 15.8539C4.31098 15.9043 4.28076 15.9547 4.26062 15.995L17.5461 23.6601L17.5663 23.6701Z" fill="#D4FFF0"/>
    <path d="M32.0001 15.3403L46.4338 23.6701L59.7193 16.005C59.6891 15.9547 59.6689 15.9144 59.6387 15.864C59.4373 15.5115 59.2257 15.169 59.0042 14.8266C58.9236 14.6956 58.843 14.5647 58.7523 14.4337C58.571 14.1517 58.3797 13.8798 58.1883 13.6078C58.0574 13.4164 57.9264 13.2251 57.7854 13.0437C57.6444 12.8524 57.5034 12.6711 57.3624 12.4898C57.1609 12.238 56.9695 11.9761 56.7681 11.7243C56.6875 11.6235 56.6069 11.5329 56.5263 11.4422C56.2544 11.1199 55.9824 10.7976 55.7004 10.4954C55.7004 10.4854 55.6803 10.4753 55.6702 10.4652C54.9953 9.71986 54.2903 9.01479 53.5449 8.33994C53.5449 8.33994 53.5248 8.3198 53.5147 8.30972C53.2025 8.0277 52.8801 7.75574 52.5578 7.48379C52.4672 7.40321 52.3664 7.32263 52.2758 7.24205C52.024 7.0406 51.7722 6.83915 51.5103 6.64778C51.329 6.50676 51.1477 6.36575 50.9563 6.22474C50.7649 6.08372 50.5736 5.95278 50.3923 5.82184C50.1203 5.63047 49.8483 5.43909 49.5663 5.25779C49.4354 5.17721 49.3044 5.08656 49.1735 5.00598C48.831 4.79446 48.4886 4.58294 48.136 4.37142C48.0857 4.3412 48.0454 4.32105 47.995 4.29084C47.9447 4.26062 47.8943 4.2304 47.854 4.21026C47.5015 4.00881 47.1489 3.81743 46.7863 3.63613C46.6453 3.56562 46.5144 3.49512 46.3734 3.42461C46.0712 3.27353 45.7791 3.13251 45.4769 2.9915C45.2654 2.89077 45.0539 2.79005 44.8424 2.6994C44.6308 2.60875 44.4193 2.5181 44.1977 2.42744C43.8956 2.30658 43.6035 2.17563 43.3013 2.06484C43.1905 2.02455 43.0696 1.98426 42.9488 1.94397C42.5559 1.80296 42.153 1.66194 41.7602 1.531C41.7501 1.531 41.73 1.531 41.7199 1.52093C40.763 1.21876 39.7961 0.956874 38.809 0.745354C38.7989 0.745354 38.7788 0.745354 38.7687 0.745354C38.3557 0.654703 37.9428 0.584196 37.5298 0.503617C37.4089 0.483472 37.2881 0.463327 37.1672 0.443182C36.8449 0.39282 36.5226 0.352531 36.2103 0.302169C35.9787 0.271951 35.747 0.241734 35.5153 0.211517C35.2837 0.1813 35.052 0.171228 34.8203 0.14101C34.4879 0.110793 34.1556 0.080576 33.8232 0.0705036C33.6721 0.0705036 33.5109 0.0604312 33.3598 0.0503588C32.9569 0.030214 32.554 0.0201416 32.1511 0.0201416C32.1008 0.0201416 32.0504 0.0201416 32.0001 0.0201416C32.0001 0.0201416 32.0001 0.0201416 31.99 0.0201416V15.3604L32.0001 15.3403Z" fill="#36A47D"/>
    <path d="M32 48.6597L17.5663 40.3299L4.28076 47.995C4.28076 47.995 4.33112 48.0856 4.36134 48.136C4.56279 48.4885 4.77431 48.831 4.9959 49.1734C5.07648 49.3044 5.15706 49.4353 5.24771 49.5662C5.42901 49.8483 5.62039 50.1202 5.81177 50.3922C5.94271 50.5836 6.07365 50.7749 6.21466 50.9562C6.35568 51.1476 6.49669 51.3289 6.6377 51.5203C6.82908 51.7721 7.03053 52.034 7.23197 52.2757C7.31255 52.3764 7.39313 52.4671 7.47371 52.5678C7.74567 52.8901 8.01762 53.2024 8.29965 53.5146C8.30972 53.5247 8.31979 53.5348 8.32987 53.5448C9.00472 54.2801 9.70978 54.9953 10.4551 55.6701C10.4652 55.6802 10.4753 55.6903 10.4854 55.7003C10.7976 55.9824 11.1098 56.2543 11.4322 56.5263C11.5329 56.6069 11.6235 56.6874 11.7243 56.768C11.9761 56.9695 12.2279 57.1709 12.4797 57.3623C12.661 57.5033 12.8524 57.6443 13.0337 57.7853C13.215 57.9263 13.4064 58.0573 13.5977 58.1882C13.8697 58.3796 14.1416 58.571 14.4237 58.7523C14.5546 58.8329 14.6855 58.9235 14.8165 59.0041C15.1589 59.2156 15.5014 59.4271 15.8539 59.6386C15.9043 59.6689 15.9547 59.6991 16.005 59.7192C16.0554 59.7494 16.0957 59.7696 16.146 59.7998C16.4986 60.0012 16.8511 60.1926 17.2137 60.384C17.3547 60.4545 17.4857 60.525 17.6267 60.5955C17.9289 60.7466 18.221 60.8876 18.5231 61.0286C18.7346 61.1294 18.9462 61.2301 19.1577 61.3207C19.3692 61.4114 19.5807 61.502 19.8023 61.5927C20.1045 61.7136 20.3966 61.8344 20.6988 61.9553C20.8196 61.9956 20.9304 62.0359 21.0513 62.0862C21.4441 62.2272 21.8369 62.3683 22.2398 62.4992C22.2499 62.4992 22.2701 62.4992 22.2801 62.5093C23.237 62.8114 24.204 63.0733 25.181 63.2849C25.1911 63.2849 25.2112 63.2849 25.2213 63.2849C25.6342 63.3755 26.0472 63.446 26.4602 63.5266C26.581 63.5467 26.7019 63.5669 26.8228 63.587C27.1451 63.6374 27.4573 63.6777 27.7797 63.728C28.0113 63.7583 28.243 63.7885 28.4747 63.8187C28.7063 63.8489 28.938 63.859 29.1697 63.8892C29.502 63.9194 29.8344 63.9496 30.1668 63.9698C30.3179 63.9698 30.4791 63.9798 30.6301 63.9899C31.033 64.0101 31.4359 64.0201 31.8388 64.0201C31.8993 64.0201 31.9496 64.0201 32.0101 64.0201V48.6799L32 48.6597Z" fill="#41C193"/>
    <path d="M46.4337 40.3299L32 48.6597V64H32.0101C32.0604 64 32.1108 64 32.1612 64C32.5641 64 32.967 63.9899 33.3698 63.9698C33.5209 63.9698 33.6821 63.9597 33.8332 63.9496C34.1656 63.9295 34.498 63.8993 34.8303 63.8791C35.062 63.859 35.2937 63.8388 35.5253 63.8086C35.757 63.7784 35.9887 63.7482 36.2203 63.718C36.5426 63.6777 36.865 63.6374 37.1772 63.577C37.2981 63.5568 37.4189 63.5367 37.5398 63.5165C37.9528 63.446 38.3658 63.3654 38.7787 63.2748C38.7888 63.2748 38.8089 63.2748 38.819 63.2748C39.796 63.0633 40.7731 62.8014 41.7299 62.4992C41.74 62.4992 41.7501 62.4992 41.7601 62.4891C42.163 62.3582 42.5559 62.2172 42.9588 62.0762C43.0696 62.0359 43.1904 61.9956 43.3012 61.9553C43.6034 61.8445 43.9056 61.7136 44.2077 61.5927C44.4193 61.502 44.6308 61.4215 44.8423 61.3308C45.0538 61.2402 45.2653 61.1394 45.4769 61.0387C45.779 60.8977 46.0711 60.7567 46.3733 60.6056C46.5143 60.5351 46.6553 60.4646 46.7863 60.3941C47.1388 60.2128 47.4913 60.0214 47.8439 59.8199C47.8942 59.7897 47.9446 59.7595 47.995 59.7394C48.0453 59.7092 48.0957 59.6789 48.136 59.6588C48.4885 59.4573 48.831 59.2458 49.1634 59.0343C49.2943 58.9537 49.4252 58.8631 49.5562 58.7825C49.8382 58.6012 50.1001 58.4098 50.372 58.2184C50.5634 58.0875 50.7548 57.9566 50.9462 57.8155C51.1376 57.6745 51.3189 57.5335 51.5002 57.3925C51.752 57.1911 52.0138 56.9997 52.2657 56.7882C52.3563 56.7076 52.457 56.627 52.5477 56.5464C52.87 56.2745 53.1923 56.0025 53.5046 55.7205C53.5046 55.7205 53.5247 55.7003 53.5348 55.7003C54.2801 55.0255 54.9852 54.3103 55.6601 53.5751C55.6601 53.565 55.6802 53.5549 55.6903 53.5448C55.9723 53.2326 56.2443 52.9204 56.5162 52.598C56.5968 52.5074 56.6774 52.4067 56.7579 52.316C56.9594 52.0642 57.1608 51.8124 57.3522 51.5606C57.4932 51.3793 57.6342 51.1879 57.7753 51.0066C57.9163 50.8152 58.0472 50.6339 58.1782 50.4425C58.3695 50.1706 58.5609 49.8986 58.7422 49.6166C58.8228 49.4857 58.9134 49.3547 58.994 49.2238C59.2055 48.8813 59.4171 48.5389 59.6286 48.1863C59.6487 48.146 59.6789 48.1058 59.6991 48.0554C59.6991 48.0554 59.6991 48.0453 59.6991 48.0352L46.4136 40.3702L46.4337 40.3299Z" fill="#36A47D"/>
    <path d="M17.5663 40.3299V23.6701L4.28076 16.005C4.28076 16.005 4.28076 16.005 4.28076 16.0151C4.26062 16.0554 4.2304 16.0957 4.21026 16.146C4.00881 16.4986 3.81743 16.8511 3.63613 17.2137C3.56562 17.3547 3.49512 17.4857 3.42461 17.6267C3.27353 17.9188 3.13251 18.221 2.9915 18.5231C2.89077 18.7347 2.79005 18.9462 2.6994 19.1577C2.60875 19.3692 2.5181 19.5807 2.42744 19.7923C2.30658 20.0944 2.17563 20.3966 2.06484 20.6988C2.02455 20.8096 1.98426 20.9304 1.94397 21.0412C1.80296 21.4341 1.66194 21.837 1.531 22.2298C1.531 22.2398 1.531 22.2499 1.52093 22.2701C1.21876 23.2269 0.956874 24.204 0.745354 25.181C0.745354 25.1911 0.745354 25.2011 0.745354 25.2112C0.654702 25.6242 0.584196 26.0371 0.503617 26.4602C0.483472 26.581 0.463327 26.7019 0.443182 26.8228C0.39282 27.1451 0.352531 27.4674 0.302169 27.7897C0.271951 28.0214 0.241734 28.243 0.211517 28.4747C0.1813 28.7063 0.171228 28.938 0.14101 29.1697C0.110793 29.502 0.080576 29.8244 0.0705036 30.1567C0.0705036 30.3078 0.0604312 30.469 0.0503588 30.6201C0.030214 31.023 0.0201416 31.4259 0.0201416 31.8288C0.0201416 31.8791 0.0201416 31.9295 0.0201416 31.9799C0.0201416 32.0403 0.0201416 32.1007 0.0201416 32.1612C0.0201416 32.5641 0.030214 32.9669 0.0503588 33.3698C0.0503588 33.5209 0.0604312 33.6821 0.0705036 33.8332C0.0906484 34.1656 0.120866 34.498 0.14101 34.8203C0.161155 35.0519 0.1813 35.2836 0.211517 35.5153C0.241734 35.7469 0.271951 35.9786 0.302169 36.2002C0.342458 36.5225 0.382748 36.8448 0.443182 37.1571C0.463327 37.2779 0.483472 37.3988 0.503617 37.5197C0.574123 37.9326 0.654702 38.3456 0.745354 38.7586C0.745354 38.7686 0.745354 38.7888 0.745354 38.7989C0.956874 39.7759 1.21876 40.7428 1.52093 41.6997C1.52093 41.7098 1.52093 41.7299 1.531 41.74C1.66194 42.1429 1.80296 42.5357 1.94397 42.9285C1.98426 43.0393 2.02455 43.1602 2.06484 43.2811C2.17563 43.5833 2.30658 43.8854 2.42744 44.1775C2.5181 44.389 2.59867 44.6106 2.6994 44.8222C2.79005 45.0337 2.89077 45.2452 2.9915 45.4567C3.13251 45.7589 3.27353 46.0611 3.42461 46.3532C3.49512 46.4942 3.56562 46.6251 3.63613 46.7661C3.81743 47.1187 4.01888 47.4813 4.22033 47.8338C4.25055 47.8842 4.27069 47.9245 4.30091 47.9748L17.5864 40.3097L17.5663 40.3299Z" fill="#36A47D"/>
    <path d="M32.0001 11.5833L14.323 21.7967V42.2134L32.0001 52.4268L49.6771 42.2134V21.7967L32.0001 11.5833Z" fill="#57FFC3"/>
  </g>
  <defs>
    <clipPath id="clip0_5304_1563">
      <rect width="64" height="64" fill="white"/>
    </clipPath>
  </defs>
</svg>