<svg width="40" height="32" viewBox="0 0 40 32" fill="none" xmlns="http://www.w3.org/2000/svg">
<g id="Frame">
<g id="Group">
<g id="Layer 2">
<path id="Vector" d="M19.8333 30.6386H19.8334C20.9339 30.6378 21.9891 30.2003 22.7673 29.4221C23.5454 28.644 23.9829 27.5888 23.9837 26.4883V26.4881C23.981 24.2163 23.0773 22.0384 21.4709 20.432C19.8645 18.8257 17.6866 17.922 15.4149 17.9192H15.4147H12.469H12.4689C10.1971 17.922 8.01919 18.8257 6.41281 20.432C4.80644 22.0384 3.90276 24.2163 3.9 26.4881L3.9 26.4883C3.9008 27.5888 4.33832 28.644 5.11648 29.4221C5.89465 30.2003 6.94983 30.6378 8.05032 30.6386H8.05039H19.8333ZM13.9419 17.3828H13.942C15.8232 17.3804 17.6268 16.632 18.957 15.3018C20.2872 13.9716 21.0356 12.168 21.038 10.2868V10.2867C21.038 8.88318 20.6218 7.51121 19.8421 6.34426C19.0623 5.17731 17.9541 4.26778 16.6574 3.73069C15.3608 3.1936 13.934 3.05307 12.5575 3.32688C11.181 3.60069 9.91656 4.27653 8.92415 5.26894C7.93174 6.26135 7.25589 7.52576 6.98209 8.90227C6.70828 10.2788 6.84881 11.7056 7.3859 13.0022C7.92299 14.2989 8.83252 15.4071 9.99947 16.1869C11.1664 16.9666 12.5384 17.3828 13.9419 17.3828ZM8.11559 22.1348C9.27036 20.98 10.836 20.3304 12.4691 20.3285H15.4146C17.0477 20.3304 18.6134 20.98 19.7681 22.1348C20.9229 23.2895 21.5725 24.8551 21.5744 26.4882C21.5737 26.9497 21.39 27.3921 21.0636 27.7185C20.7372 28.0449 20.2948 28.2286 19.8332 28.2293H8.05055C7.58897 28.2286 7.1465 28.0449 6.82012 27.7185C6.49376 27.3921 6.31007 26.9497 6.3093 26.4882C6.31126 24.8551 6.96085 23.2895 8.11559 22.1348ZM11.338 6.38971C12.1087 5.87473 13.0148 5.59986 13.9417 5.59983C15.1843 5.60136 16.3756 6.09565 17.2542 6.9743C18.1329 7.85294 18.6272 9.04419 18.6287 10.2868C18.6287 11.2137 18.3538 12.1198 17.8388 12.8905C17.3238 13.6613 16.5918 14.262 15.7354 14.6167C14.879 14.9715 13.9367 15.0643 13.0275 14.8834C12.1184 14.7026 11.2832 14.2562 10.6278 13.6007C9.97232 12.9453 9.52594 12.1102 9.3451 11.201C9.16426 10.2919 9.25707 9.34949 9.61181 8.49309C9.96654 7.63668 10.5673 6.9047 11.338 6.38971Z" fill="#515151" stroke="#515151" stroke-width="0.2"/>
<path id="Vector_2" d="M31.6166 30.6389L31.6162 30.6389H22.779H22.779V30.5389C22.0652 30.5393 21.3642 30.3497 20.7479 29.9895L31.6166 30.6389ZM31.6166 30.6389C32.7158 30.6341 33.7686 30.1954 34.5458 29.4181C35.3231 28.6409 35.7618 27.5881 35.7666 26.4889V26.4884C35.7642 24.6071 35.0158 22.8036 33.6856 21.4734C32.3554 20.1431 30.5518 19.3947 28.6706 19.3924H28.6705H25.7247H25.7246C24.788 19.3936 23.8609 19.5794 22.9961 19.939C22.1313 20.2986 21.3458 20.825 20.6845 21.4882L20.6844 21.4882L20.6822 21.4906C20.4609 21.7277 20.333 22.037 20.3224 22.3612L20.3224 22.3612L20.3224 22.3646C20.3228 22.6163 20.4019 22.8615 20.5487 23.066C20.6954 23.2704 20.9025 23.4238 21.1408 23.5047C21.3791 23.5857 21.6367 23.59 21.8776 23.5172C22.116 23.4451 22.3262 23.3009 22.4794 23.1047C23.3531 22.269 24.5155 21.8022 25.7247 21.8017C25.7247 21.8017 25.7248 21.8017 25.7248 21.8017H28.6703C29.9129 21.8032 31.1042 22.2975 31.9828 23.1761C32.8615 24.0548 33.3558 25.246 33.3573 26.4886L33.3573 26.4889C33.3582 26.7194 33.3123 26.9476 33.2221 27.1598C33.1319 27.3719 32.9995 27.5634 32.8329 27.7226L32.8329 27.7226L32.8305 27.725C32.6726 27.8865 32.4838 28.0144 32.2752 28.1011C32.0667 28.1878 31.8429 28.2315 31.617 28.2296H31.6162H22.7793L31.6166 30.6389ZM27.1976 18.8559H27.1977C28.6885 18.8539 30.1176 18.2609 31.1717 17.2068C32.2258 16.1527 32.8189 14.7235 32.8209 13.2328V13.2327C32.8209 12.1205 32.4911 11.0333 31.8732 10.1086C31.2553 9.18382 30.377 8.46307 29.3495 8.03746C28.322 7.61185 27.1914 7.50049 26.1006 7.71746C25.0097 7.93444 24.0078 8.47 23.2213 9.25643C22.4349 10.0429 21.8994 11.0448 21.6824 12.1356C21.4654 13.2264 21.5768 14.3571 22.0024 15.3846C22.428 16.4121 23.1487 17.2904 24.0735 17.9082C24.9982 18.5261 26.0854 18.8559 27.1976 18.8559ZM25.412 10.5604C25.9405 10.2072 26.5618 10.0187 27.1975 10.0187C28.0495 10.0199 28.8664 10.3588 29.4689 10.9614C30.0714 11.5639 30.4104 12.3807 30.4115 13.2328C30.4115 13.8684 30.223 14.4898 29.8699 15.0183C29.5167 15.5468 29.0148 15.9587 28.4275 16.202C27.8402 16.4452 27.194 16.5089 26.5706 16.3849C25.9471 16.2609 25.3745 15.9548 24.925 15.5053C24.4755 15.0558 24.1694 14.4831 24.0454 13.8597C23.9214 13.2362 23.985 12.59 24.2283 12.0027C24.4715 11.4155 24.8835 10.9135 25.412 10.5604Z" fill="#515151" stroke="#515151" stroke-width="0.2"/>
</g>
</g>
</g>
</svg>
