<svg xmlns="http://www.w3.org/2000/svg" width="36" height="36" viewBox="0 0 36 36" fill="none">
  <path d="M7.875 9C6.98499 9 6.11496 8.73608 5.37494 8.24162C4.63491 7.74715 4.05814 7.04434 3.71754 6.22208C3.37695 5.39981 3.28783 4.49501 3.46147 3.6221C3.6351 2.74918 4.06368 1.94736 4.69302 1.31802C5.32236 0.688685 6.12418 0.260102 6.9971 0.0864683C7.87001 -0.0871652 8.77481 0.00194976 9.59708 0.342544C10.4193 0.683138 11.1221 1.25991 11.6166 1.99994C12.1111 2.73996 12.375 3.60999 12.375 4.5C12.3738 5.69311 11.8993 6.83701 11.0557 7.68067C10.212 8.52432 9.06811 8.99881 7.875 9ZM7.875 2.25C7.42999 2.25 6.99498 2.38196 6.62497 2.6292C6.25496 2.87643 5.96657 3.22783 5.79627 3.63896C5.62598 4.0501 5.58142 4.5025 5.66823 4.93896C5.75505 5.37541 5.96934 5.77632 6.28401 6.09099C6.59868 6.40566 6.99959 6.61995 7.43605 6.70677C7.87251 6.79359 8.32491 6.74903 8.73604 6.57873C9.14717 6.40843 9.49858 6.12005 9.74581 5.75003C9.99304 5.38002 10.125 4.94501 10.125 4.5C10.1244 3.90345 9.88716 3.3315 9.46533 2.90967C9.04351 2.48784 8.47156 2.2506 7.875 2.25Z" fill="white"/>
  <path d="M13.5 18H2.25C1.95163 18 1.66548 17.8815 1.4545 17.6705C1.24353 17.4595 1.125 17.1734 1.125 16.875V13.5C1.125 11.7098 1.83616 9.9929 3.10203 8.72703C4.3679 7.46116 6.08479 6.75 7.875 6.75C9.66521 6.75 11.3821 7.46116 12.648 8.72703C13.9138 9.9929 14.625 11.7098 14.625 13.5V16.875C14.625 17.1734 14.5065 17.4595 14.2955 17.6705C14.0845 17.8815 13.7984 18 13.5 18ZM3.375 15.75H12.375V13.5C12.375 12.3065 11.9009 11.1619 11.057 10.318C10.2131 9.47411 9.06847 9 7.875 9C6.68153 9 5.53693 9.47411 4.69302 10.318C3.84911 11.1619 3.375 12.3065 3.375 13.5V15.75ZM28.125 27C27.235 27 26.365 26.7361 25.6249 26.2416C24.8849 25.7471 24.3081 25.0443 23.9675 24.2221C23.6269 23.3998 23.5378 22.495 23.7115 21.6221C23.8851 20.7492 24.3137 19.9474 24.943 19.318C25.5724 18.6887 26.3742 18.2601 27.2471 18.0865C28.12 17.9128 29.0248 18.0019 29.8471 18.3425C30.6693 18.6831 31.3721 19.2599 31.8666 19.9999C32.3611 20.74 32.625 21.61 32.625 22.5C32.6238 23.6931 32.1493 24.837 31.3057 25.6807C30.462 26.5243 29.3181 26.9988 28.125 27ZM28.125 20.25C27.68 20.25 27.245 20.382 26.875 20.6292C26.505 20.8764 26.2166 21.2278 26.0463 21.639C25.876 22.0501 25.8314 22.5025 25.9182 22.939C26.005 23.3754 26.2193 23.7763 26.534 24.091C26.8487 24.4057 27.2496 24.62 27.686 24.7068C28.1225 24.7936 28.5749 24.749 28.986 24.5787C29.3972 24.4084 29.7486 24.12 29.9958 23.75C30.243 23.38 30.375 22.945 30.375 22.5C30.3744 21.9034 30.1372 21.3315 29.7153 20.9097C29.2935 20.4878 28.7216 20.2506 28.125 20.25Z" fill="white"/>
  <path d="M33.75 36H22.5C22.2016 36 21.9155 35.8815 21.7045 35.6705C21.4935 35.4595 21.375 35.1734 21.375 34.875V31.5C21.375 29.7098 22.0862 27.9929 23.352 26.727C24.6179 25.4612 26.3348 24.75 28.125 24.75C29.9152 24.75 31.6321 25.4612 32.898 26.727C34.1638 27.9929 34.875 29.7098 34.875 31.5V34.875C34.875 35.1734 34.7565 35.4595 34.5455 35.6705C34.3345 35.8815 34.0484 36 33.75 36ZM23.625 33.75H32.625V31.5C32.625 30.3065 32.1509 29.1619 31.307 28.318C30.4631 27.4741 29.3185 27 28.125 27C26.9315 27 25.7869 27.4741 24.943 28.318C24.0991 29.1619 23.625 30.3065 23.625 31.5V33.75ZM28.125 15.75C27.8266 15.75 27.5405 15.6315 27.3295 15.4205C27.1185 15.2095 27 14.9234 27 14.625V9C26.9991 8.10517 26.6432 7.24724 26.0105 6.6145C25.3778 5.98176 24.5198 5.62589 23.625 5.625H15.75C15.4516 5.625 15.1655 5.50647 14.9545 5.29549C14.7435 5.08452 14.625 4.79837 14.625 4.5C14.625 4.20163 14.7435 3.91548 14.9545 3.7045C15.1655 3.49353 15.4516 3.375 15.75 3.375H23.625C25.1163 3.37679 26.546 3.96999 27.6005 5.0245C28.655 6.079 29.2482 7.50871 29.25 9V14.625C29.25 14.9234 29.1315 15.2095 28.9205 15.4205C28.7095 15.6315 28.4234 15.75 28.125 15.75Z" fill="white"/>
  <path d="M28.125 15.7508C27.9772 15.751 27.8309 15.7219 27.6944 15.6654C27.5579 15.6088 27.434 15.5258 27.3296 15.4212L25.0796 13.1712C24.8747 12.959 24.7613 12.6748 24.7639 12.3799C24.7664 12.0849 24.8847 11.8027 25.0933 11.5942C25.3019 11.3856 25.5841 11.2673 25.879 11.2647C26.174 11.2621 26.4582 11.3755 26.6704 11.5804L28.125 13.0351L29.5796 11.5804C29.7918 11.3755 30.076 11.2621 30.371 11.2647C30.6659 11.2673 30.9481 11.3856 31.1567 11.5942C31.3653 11.8027 31.4836 12.0849 31.4861 12.3799C31.4887 12.6748 31.3753 12.959 31.1704 13.1712L28.9204 15.4212C28.816 15.5258 28.6921 15.6088 28.5556 15.6654C28.4191 15.7219 28.2728 15.751 28.125 15.7508ZM18 32.6258H10.125C8.63371 32.624 7.204 32.0308 6.1495 30.9763C5.09499 29.9218 4.50179 28.4921 4.5 27.0008V21.3758C4.5 21.0775 4.61853 20.7913 4.82951 20.5803C5.04048 20.3693 5.32663 20.2508 5.625 20.2508C5.92337 20.2508 6.20952 20.3693 6.42049 20.5803C6.63147 20.7913 6.75 21.0775 6.75 21.3758V27.0008C6.75089 27.8957 7.10676 28.7536 7.7395 29.3863C8.37224 30.0191 9.23017 30.3749 10.125 30.3758H18C18.2984 30.3758 18.5845 30.4943 18.7955 30.7053C19.0065 30.9163 19.125 31.2025 19.125 31.5008C19.125 31.7992 19.0065 32.0853 18.7955 32.2963C18.5845 32.5073 18.2984 32.6258 18 32.6258Z" fill="white"/>
  <path d="M7.87485 24.7498C7.7271 24.7499 7.58077 24.7209 7.44427 24.6643C7.30778 24.6077 7.1838 24.5248 7.07947 24.4201L5.62485 22.9655L4.17022 24.4201C3.95805 24.6251 3.67387 24.7385 3.3789 24.7359C3.08392 24.7333 2.80176 24.615 2.59318 24.4064C2.38459 24.1978 2.26628 23.9157 2.26371 23.6207C2.26115 23.3257 2.37454 23.0416 2.57947 22.8294L4.82947 20.5794C5.04044 20.3685 5.32654 20.25 5.62485 20.25C5.92316 20.25 6.20925 20.3685 6.42022 20.5794L8.67022 22.8294C8.82751 22.9867 8.93462 23.1872 8.978 23.4053C9.02139 23.6235 8.99911 23.8497 8.91399 24.0552C8.82886 24.2608 8.6847 24.4365 8.49974 24.5601C8.31478 24.6837 8.09732 24.7497 7.87485 24.7498Z" fill="white"/>
</svg>