<svg xmlns="http://www.w3.org/2000/svg" width="36" height="36" viewBox="0 0 36 36" fill="none">
  <g clip-path="url(#clip0_5439_2712)">
    <path d="M18 0C8.0748 0 0 8.0748 0 18C0 22.347 1.5492 26.3388 4.1244 29.4528C4.131 29.4618 4.1316 29.4732 4.1388 29.4816C5.9982 31.7238 8.3334 33.4428 10.9356 34.5534C10.9656 34.566 10.995 34.5798 11.025 34.5924C11.2356 34.6812 11.4486 34.7634 11.6622 34.8438C11.7462 34.8756 11.8302 34.908 11.9154 34.9386C12.0996 35.0046 12.285 35.067 12.4716 35.127C12.591 35.1654 12.7104 35.2032 12.831 35.2392C12.996 35.2884 13.1616 35.3358 13.3284 35.3808C13.4748 35.4204 13.6224 35.457 13.77 35.4924C13.9194 35.5284 14.0694 35.5644 14.22 35.5962C14.388 35.6322 14.5578 35.664 14.7282 35.6952C14.865 35.7204 15.0012 35.7468 15.1392 35.769C15.3282 35.7996 15.5184 35.8236 15.7092 35.8482C15.8322 35.8638 15.9546 35.8818 16.0782 35.895C16.2942 35.9178 16.512 35.934 16.7304 35.949C16.8318 35.9562 16.9326 35.967 17.0346 35.9724C17.3532 35.9904 17.6754 36 18 36C18.3246 36 18.6468 35.9904 18.9666 35.9736C19.0686 35.9682 19.1694 35.9574 19.2708 35.9502C19.4892 35.9346 19.707 35.919 19.923 35.8962C20.0466 35.883 20.169 35.865 20.292 35.8494C20.4828 35.8248 20.673 35.8008 20.862 35.7702C20.9994 35.748 21.1362 35.7216 21.273 35.6964C21.4428 35.6652 21.6126 35.6334 21.7812 35.5974C21.9318 35.565 22.0812 35.5296 22.2312 35.4936C22.3788 35.4576 22.5264 35.421 22.6728 35.382C22.9605 35.3047 23.2462 35.2201 23.5296 35.1282C23.7162 35.0682 23.9016 35.0058 24.0858 34.9398C24.1704 34.9092 24.2544 34.8768 24.339 34.845C24.553 34.7652 24.7654 34.6814 24.9762 34.5936C25.0062 34.581 25.0356 34.5672 25.0656 34.5546C27.7028 33.4295 30.0331 31.6906 31.8624 29.4828C31.8696 29.4744 31.8702 29.4624 31.8768 29.454C34.4508 26.3388 36 22.347 36 18C36 8.0748 27.9252 0 18 0ZM25.2942 33.132C25.2852 33.1362 25.2768 33.141 25.2678 33.1452C25.0536 33.2484 24.8358 33.3456 24.6162 33.4404C24.5664 33.4614 24.5172 33.483 24.4674 33.504C24.2749 33.5843 24.0809 33.6609 23.8854 33.7338C23.8039 33.7645 23.7221 33.7943 23.64 33.8232C23.4666 33.8852 23.2921 33.9444 23.1168 34.0008C23.0076 34.0356 22.8978 34.0686 22.788 34.101C22.6317 34.1481 22.4747 34.1927 22.317 34.2348C22.1838 34.2702 22.0494 34.3026 21.915 34.3344C21.774 34.368 21.6336 34.4022 21.4914 34.4322C21.336 34.4652 21.1794 34.4934 21.0234 34.5216C20.8968 34.545 20.7708 34.5696 20.643 34.59C20.4672 34.6176 20.2896 34.6398 20.1126 34.662C20.0004 34.6764 19.8888 34.6932 19.7754 34.7052C19.5732 34.7268 19.3692 34.7406 19.1658 34.755C19.0752 34.761 18.9852 34.7712 18.8934 34.776C18.5964 34.7916 18.2988 34.8 18 34.8C17.7012 34.8 17.4036 34.7916 17.1072 34.776C17.016 34.7712 16.926 34.7616 16.8348 34.755C16.6308 34.7412 16.4274 34.7268 16.2252 34.7052C16.1118 34.6932 16.0002 34.6764 15.888 34.662C15.711 34.6398 15.5334 34.6176 15.3576 34.59C15.2298 34.5696 15.1038 34.545 14.9772 34.5216C14.8206 34.4934 14.664 34.4646 14.5092 34.4322C14.367 34.4022 14.226 34.368 14.0856 34.3344C13.9512 34.302 13.8168 34.2702 13.6836 34.2348C13.5258 34.1928 13.3686 34.1472 13.2126 34.101C13.1026 34.0688 12.993 34.0354 12.8838 34.0008C12.7084 33.9445 12.534 33.8853 12.3606 33.8232C12.082 33.7243 11.8061 33.6179 11.5332 33.504C11.4834 33.4836 11.4348 33.462 11.385 33.441C11.1655 33.3472 10.9481 33.2488 10.7328 33.1458C10.7239 33.1416 10.7151 33.1372 10.7064 33.1326C8.613 32.1198 6.7638 30.6822 5.2632 28.9362C6.423 24.6654 9.7062 21.2226 13.9302 19.8528C14.0136 19.9038 14.1006 19.9494 14.1864 19.9974C14.2368 20.0256 14.2866 20.0556 14.3376 20.0826C14.5158 20.1777 14.6977 20.2656 14.883 20.346C15.0252 20.4084 15.1722 20.4612 15.3186 20.5152C15.3474 20.5254 15.3762 20.5368 15.405 20.547C16.2186 20.835 17.0892 21 18 21C18.9108 21 19.7814 20.835 20.5944 20.547C20.6232 20.5368 20.652 20.5254 20.6808 20.5152C20.8272 20.4612 20.9742 20.4084 21.1164 20.346C21.3017 20.2656 21.4836 20.1777 21.6618 20.0826C21.7128 20.055 21.7626 20.0256 21.813 19.9974C21.8988 19.9494 21.9864 19.9038 22.0704 19.8522C26.2944 21.2226 29.577 24.6654 30.7374 28.9356C29.2368 30.681 27.3876 32.1186 25.2942 33.132ZM11.4 13.2C11.4 9.561 14.361 6.6 18 6.6C21.639 6.6 24.6 9.561 24.6 13.2C24.6 15.5148 23.3994 17.5518 21.5904 18.7302C21.3548 18.8833 21.1092 19.0206 20.8554 19.1412C20.8254 19.1556 20.796 19.1706 20.766 19.1844C19.0284 19.9746 16.9716 19.9746 15.234 19.1844C15.204 19.1706 15.174 19.1556 15.1446 19.1412C14.8907 19.0207 14.6452 18.8834 14.4096 18.7302C12.6006 17.5518 11.4 15.5148 11.4 13.2ZM31.6374 27.7938C30.2772 23.7774 27.174 20.5314 23.2092 18.9894C24.795 17.5608 25.8 15.498 25.8 13.2C25.8 8.8992 22.3008 5.4 18 5.4C13.6992 5.4 10.2 8.8992 10.2 13.2C10.2 15.498 11.205 17.5608 12.7914 18.9894C8.8266 20.532 5.7234 23.7774 4.3632 27.7938C2.3754 25.0344 1.2 21.6528 1.2 18C1.2 8.7366 8.7366 1.2 18 1.2C27.2634 1.2 34.8 8.7366 34.8 18C34.8 21.6528 33.6246 25.0344 31.6374 27.7938Z" fill="#FFF"/>
  </g>
  <defs>
    <clipPath id="clip0_5439_2712">
      <rect width="36" height="36" fill="white"/>
    </clipPath>
  </defs>
</svg>