<svg xmlns="http://www.w3.org/2000/svg" width="29" height="29" viewBox="0 0 29 29" fill="none">
  <g clip-path="url(#clip0_5522_1468)">
    <path d="M27.5448 9.90763L21.2065 3.56941C20.6836 3.04643 20.1531 2.78125 19.63 2.78125C18.9117 2.78125 18.0729 3.32758 18.0729 4.8673V7.02516C13.468 7.22587 9.16764 9.11439 5.8877 12.3942C2.41373 15.8679 0.500383 20.4865 0.5 25.3993C0.499946 25.5714 0.55405 25.7392 0.654649 25.8789C0.755248 26.0186 0.897242 26.1231 1.06052 26.1776C1.2238 26.2321 1.4001 26.2339 1.56443 26.1826C1.72877 26.1314 1.87282 26.0297 1.97618 25.8921C5.84898 20.737 11.6798 17.6904 18.0729 17.4499V19.5744C18.0729 21.1141 18.9116 21.6605 19.6299 21.6605C20.153 21.6605 20.6836 21.3953 21.2065 20.8724L27.5447 14.5341C28.1608 13.9182 28.5 13.0967 28.5 12.2209C28.5 11.3451 28.1608 10.5236 27.5448 9.90763ZM26.3847 13.374L20.0465 19.7123C19.9249 19.8339 19.8242 19.9107 19.7499 19.9573C19.7304 19.8719 19.7135 19.7463 19.7135 19.5745V16.6142C19.7135 16.1611 19.3462 15.7939 18.8932 15.7939C15.2485 15.7939 11.7657 16.6289 8.5418 18.2758C6.22742 19.4581 4.11178 21.0496 2.32016 22.945C3.51202 14.8678 10.4903 8.64796 18.8932 8.64796C19.3462 8.64796 19.7135 8.28068 19.7135 7.82765V4.8673C19.7135 4.69542 19.7304 4.56991 19.7499 4.48449C19.8242 4.53114 19.9249 4.60792 20.0465 4.72949L26.3847 11.0678C26.6908 11.3739 26.8594 11.7834 26.8594 12.2209C26.8594 12.6584 26.6908 13.0679 26.3847 13.374Z" fill="black"/>
  </g>
  <defs>
    <clipPath id="clip0_5522_1468">
      <rect width="28" height="28" fill="white" transform="translate(0.5 0.5)"/>
    </clipPath>
  </defs>
</svg>