<svg xmlns="http://www.w3.org/2000/svg" width="36" height="36" viewBox="0 0 36 36" fill="none">
  <path d="M29.4817 3.375H28.125V2.25C28.125 1.95163 28.0065 1.66548 27.7955 1.4545C27.5845 1.24353 27.2984 1.125 27 1.125C26.7016 1.125 26.4155 1.24353 26.2045 1.4545C25.9935 1.66548 25.875 1.95163 25.875 2.25V3.375H19.125V2.25C19.125 1.95163 19.0065 1.66548 18.7955 1.4545C18.5845 1.24353 18.2984 1.125 18 1.125C17.7016 1.125 17.4155 1.24353 17.2045 1.4545C16.9935 1.66548 16.875 1.95163 16.875 2.25V3.375H10.125V2.25C10.125 1.95163 10.0065 1.66548 9.7955 1.4545C9.58452 1.24353 9.29837 1.125 9 1.125C8.70163 1.125 8.41548 1.24353 8.2045 1.4545C7.99353 1.66548 7.875 1.95163 7.875 2.25V3.375H6.51825C5.38679 3.37679 4.30218 3.82705 3.50211 4.62711C2.70205 5.42718 2.25179 6.51179 2.25 7.64325V30.6067C2.25179 31.7382 2.70205 32.8228 3.50211 33.6229C4.30218 34.423 5.38679 34.8732 6.51825 34.875H29.4817C30.6132 34.8732 31.6978 34.423 32.4979 33.6229C33.298 32.8228 33.7482 31.7382 33.75 30.6067V7.64325C33.7482 6.51179 33.298 5.42718 32.4979 4.62711C31.6978 3.82705 30.6132 3.37679 29.4817 3.375ZM31.5 30.6067C31.4982 31.1415 31.285 31.6538 30.9069 32.0319C30.5288 32.41 30.0165 32.6232 29.4817 32.625H6.51825C5.98352 32.6232 5.47121 32.41 5.0931 32.0319C4.71499 31.6538 4.50178 31.1415 4.5 30.6067V7.64325C4.50178 7.10852 4.71499 6.59621 5.0931 6.2181C5.47121 5.83999 5.98352 5.62678 6.51825 5.625H7.875V6.75C7.875 7.04837 7.99353 7.33452 8.2045 7.5455C8.41548 7.75647 8.70163 7.875 9 7.875C9.29837 7.875 9.58452 7.75647 9.7955 7.5455C10.0065 7.33452 10.125 7.04837 10.125 6.75V5.625H16.875V6.75C16.875 7.04837 16.9935 7.33452 17.2045 7.5455C17.4155 7.75647 17.7016 7.875 18 7.875C18.2984 7.875 18.5845 7.75647 18.7955 7.5455C19.0065 7.33452 19.125 7.04837 19.125 6.75V5.625H25.875V6.75C25.875 7.04837 25.9935 7.33452 26.2045 7.5455C26.4155 7.75647 26.7016 7.875 27 7.875C27.2984 7.875 27.5845 7.75647 27.7955 7.5455C28.0065 7.33452 28.125 7.04837 28.125 6.75V5.625H29.4817C30.0165 5.62678 30.5288 5.83999 30.9069 6.2181C31.285 6.59621 31.4982 7.10852 31.5 7.64325V30.6067Z" fill="#67DAB1"/>
  <path d="M13.8298 12.7054L11.2502 15.2851L9.79553 13.8304C9.69175 13.723 9.56761 13.6373 9.43036 13.5783C9.2931 13.5194 9.14548 13.4883 8.9961 13.487C8.84673 13.4857 8.69859 13.5142 8.56033 13.5708C8.42207 13.6273 8.29646 13.7109 8.19083 13.8165C8.0852 13.9221 8.00167 14.0477 7.9451 14.186C7.88854 14.3243 7.86007 14.4724 7.86137 14.6218C7.86267 14.7712 7.8937 14.9188 7.95266 15.056C8.01162 15.1933 8.09733 15.3174 8.20478 15.4212L10.4548 17.6712C10.6657 17.8821 10.9518 18.0006 11.2502 18.0006C11.5485 18.0006 11.8346 17.8821 12.0455 17.6712L15.4205 14.2962C15.6255 14.084 15.7388 13.7998 15.7363 13.5049C15.7337 13.2099 15.6154 12.9277 15.4068 12.7192C15.1982 12.5106 14.9161 12.3923 14.6211 12.3897C14.3261 12.3871 14.042 12.5005 13.8298 12.7054ZM27.0002 14.6258H19.1252C18.8268 14.6258 18.5406 14.7444 18.3297 14.9553C18.1187 15.1663 18.0002 15.4525 18.0002 15.7508C18.0002 16.0492 18.1187 16.3353 18.3297 16.5463C18.5406 16.7573 18.8268 16.8758 19.1252 16.8758H27.0002C27.2985 16.8758 27.5847 16.7573 27.7956 16.5463C28.0066 16.3353 28.1252 16.0492 28.1252 15.7508C28.1252 15.4525 28.0066 15.1663 27.7956 14.9553C27.5847 14.7444 27.2985 14.6258 27.0002 14.6258ZM13.8298 22.8304L11.2502 25.4101L9.79553 23.9554C9.69175 23.848 9.56761 23.7623 9.43036 23.7033C9.2931 23.6444 9.14548 23.6133 8.9961 23.612C8.84673 23.6107 8.69859 23.6392 8.56033 23.6958C8.42207 23.7523 8.29646 23.8359 8.19083 23.9415C8.0852 24.0471 8.00167 24.1727 7.9451 24.311C7.88854 24.4493 7.86007 24.5974 7.86137 24.7468C7.86267 24.8962 7.8937 25.0438 7.95266 25.181C8.01162 25.3183 8.09733 25.4424 8.20478 25.5462L10.4548 27.7962C10.6657 28.0071 10.9518 28.1256 11.2502 28.1256C11.5485 28.1256 11.8346 28.0071 12.0455 27.7962L15.4205 24.4212C15.6255 24.209 15.7388 23.9248 15.7363 23.6299C15.7337 23.3349 15.6154 23.0527 15.4068 22.8442C15.1982 22.6356 14.9161 22.5173 14.6211 22.5147C14.3261 22.5121 14.042 22.6255 13.8298 22.8304ZM27.0002 24.7508H19.1252C18.8268 24.7508 18.5406 24.8693 18.3297 25.0803C18.1187 25.2913 18.0002 25.5775 18.0002 25.8758C18.0002 26.1742 18.1187 26.4603 18.3297 26.6713C18.5406 26.8823 18.8268 27.0008 19.1252 27.0008H27.0002C27.2985 27.0008 27.5847 26.8823 27.7956 26.6713C28.0066 26.4603 28.1252 26.1742 28.1252 25.8758C28.1252 25.5775 28.0066 25.2913 27.7956 25.0803C27.5847 24.8693 27.2985 24.7508 27.0002 24.7508Z" fill="#67DAB1"/>
</svg>