<svg width="32" height="33" viewBox="0 0 32 33" fill="none" xmlns="http://www.w3.org/2000/svg">
<g id="Frame">
<g id="Group">
<path id="Vector" d="M10.6394 4.5H2.37746C1.61696 4.5 1.00049 5.11647 1.00049 5.87697V14.1389C1.00049 14.8994 1.61696 15.5158 2.37746 15.5158H10.6394C11.3999 15.5158 12.0163 14.8994 12.0163 14.1389V5.87697C12.0163 5.11647 11.3999 4.5 10.6394 4.5ZM9.26239 12.7619H3.75444V7.25395H9.26239V12.7619ZM29.9172 8.63092H16.1473C15.3868 8.63092 14.7703 9.24739 14.7703 10.0079C14.7703 10.7684 15.3868 11.3849 16.1473 11.3849H29.9172C30.6777 11.3849 31.2941 10.7684 31.2941 10.0079C31.2941 9.24745 30.6776 8.63092 29.9172 8.63092ZM29.9172 22.4008H16.1473C15.3868 22.4008 14.7703 23.0173 14.7703 23.7777C14.7703 24.5382 15.3868 25.1547 16.1473 25.1547H29.9172C30.6777 25.1547 31.2941 24.5382 31.2941 23.7777C31.2941 23.0173 30.6776 22.4008 29.9172 22.4008ZM9.67548 20.0448L5.09151 24.5737L3.36753 22.7836C2.83862 22.2368 1.96658 22.2223 1.41978 22.7512C0.872973 23.2801 0.85848 24.1522 1.38739 24.699L4.078 27.4956C4.20505 27.6252 4.35646 27.7285 4.52354 27.7994C4.69061 27.8703 4.87006 27.9074 5.05155 27.9087H5.06807C5.42911 27.9076 5.77526 27.7647 6.03196 27.5108L11.6032 22.0028C12.1796 21.5068 12.2448 20.6373 11.7487 20.0609C11.2527 19.4845 10.3832 19.4194 9.80681 19.9155C9.76021 19.9556 9.71633 19.9988 9.67548 20.0448Z" fill="#FFF"/>
</g>
</g>
</svg>
