<svg xmlns="http://www.w3.org/2000/svg" width="48" height="48" viewBox="0 0 48 48" fill="none">
  <path d="M0 9C0 4.02944 4.02944 0 9 0H39C43.9706 0 48 4.02944 48 9V39C48 43.9706 43.9706 48 39 48H9C4.02944 48 0 43.9706 0 39V9Z" fill="#67DAB1"/>
  <path fill-rule="evenodd" clip-rule="evenodd" d="M11.9242 22.3319C19.4379 18.9449 24.4483 16.712 26.9551 15.6332C34.1129 12.553 35.6002 12.0179 36.5696 12.0002C36.7828 11.9963 37.2595 12.051 37.5683 12.3103C38.0264 12.6949 38.029 13.5297 37.9782 14.0822C37.5903 18.2988 35.9119 28.5314 35.058 33.2541C34.6967 35.2525 33.9853 35.9226 33.2966 35.9881C31.7999 36.1306 30.6633 34.9647 29.2137 33.9815C26.9452 32.443 25.6637 31.4853 23.4617 29.984C20.917 28.249 22.5666 27.2955 24.0168 25.7371C24.3964 25.3293 30.9911 19.1231 31.1187 18.5601C31.1347 18.4897 31.1495 18.2272 30.9988 18.0886C30.8481 17.9501 30.6257 17.9974 30.4652 18.0351C30.2377 18.0885 26.6138 20.5667 19.5936 25.4697C18.5649 26.2005 17.6332 26.5565 16.7985 26.5379C15.8782 26.5174 14.108 25.9996 12.792 25.557C11.1779 25.0141 9.89503 24.7271 10.0068 23.8052C10.065 23.3249 10.7041 22.8338 11.9242 22.3319Z" fill="black"/>
</svg>