<svg xmlns="http://www.w3.org/2000/svg" width="24" height="24" viewBox="0 0 24 24" fill="none">
  <path d="M13 9C13 9.26522 12.8946 9.51957 12.7071 9.70711C12.5196 9.89464 12.2652 10 12 10C11.7348 10 11.4804 9.89464 11.2929 9.70711C11.1054 9.51957 11 9.26522 11 9C11 8.73478 11.1054 8.48043 11.2929 8.29289C11.4804 8.10536 11.7348 8 12 8C12.2652 8 12.5196 8.10536 12.7071 8.29289C12.8946 8.48043 13 8.73478 13 9ZM12 11.75C12.1989 11.75 12.3897 11.829 12.5303 11.9697C12.671 12.1103 12.75 12.3011 12.75 12.5V17.5C12.75 17.6989 12.671 17.8897 12.5303 18.0303C12.3897 18.171 12.1989 18.25 12 18.25C11.8011 18.25 11.6103 18.171 11.4697 18.0303C11.329 17.8897 11.25 17.6989 11.25 17.5V12.5C11.25 12.3011 11.329 12.1103 11.4697 11.9697C11.6103 11.829 11.8011 11.75 12 11.75Z" fill="#F97171"/>
  <path fill-rule="evenodd" clip-rule="evenodd" d="M14.27 3.99292C14.0177 3.62353 13.6791 3.3213 13.2835 3.11245C12.8879 2.9036 12.4474 2.79443 12 2.79443C11.5527 2.79443 11.1121 2.9036 10.7166 3.11245C10.321 3.3213 9.98234 3.62353 9.73003 3.99292L9.29803 4.62492C6.59194 8.58397 4.26689 12.7904 2.35403 17.1879L2.26403 17.3959C2.10726 17.7564 2.0373 18.1486 2.05977 18.541C2.08224 18.9334 2.19653 19.3151 2.39342 19.6553C2.59032 19.9954 2.86433 20.2847 3.1934 20.4996C3.52246 20.7146 3.8974 20.8493 4.28803 20.8929C9.41341 21.4658 14.5867 21.4658 19.712 20.8929C20.1027 20.8493 20.4776 20.7146 20.8067 20.4996C21.1357 20.2847 21.4097 19.9954 21.6066 19.6553C21.8035 19.3151 21.9178 18.9334 21.9403 18.541C21.9628 18.1486 21.8928 17.7564 21.736 17.3959L21.646 17.1879C19.7332 12.7904 17.4081 8.58397 14.702 4.62492L14.27 3.99292ZM10.968 4.83892C11.0828 4.67103 11.2367 4.53368 11.4166 4.43876C11.5964 4.34385 11.7967 4.29424 12 4.29424C12.2034 4.29424 12.4037 4.34385 12.5835 4.43876C12.7633 4.53368 12.9173 4.67103 13.032 4.83892L13.464 5.47092C16.1164 9.35183 18.3953 13.4752 20.27 17.7859L20.36 17.9939C20.4231 18.139 20.4513 18.2968 20.4423 18.4548C20.4333 18.6127 20.3874 18.7663 20.3082 18.9033C20.2291 19.0402 20.1188 19.1567 19.9865 19.2433C19.8541 19.3299 19.7032 19.3842 19.546 19.4019C14.531 19.9619 9.46903 19.9619 4.45403 19.4019C4.29675 19.3844 4.14578 19.3301 4.01327 19.2436C3.88077 19.157 3.77043 19.0406 3.69115 18.9036C3.61187 18.7667 3.56585 18.613 3.55679 18.455C3.54774 18.297 3.57591 18.139 3.63903 17.9939L3.72903 17.7859C5.60415 13.4752 7.88333 9.35181 10.536 5.47092L10.968 4.83892Z" fill="#F97171"/>
</svg>